<svg width="135mm" height="85mm" viewBox="0 0 135000 85000"><g xmlns="http://www.w3.org/2000/svg" fill="#303f9f" fill-rule="nonzero" stroke="none" stroke-width="none" stroke-linecap="butt" stroke-linejoin="miter" stroke-miterlimit="10" stroke-dasharray="" stroke-dashoffset="0" font-family="none" font-weight="none" font-size="none" text-anchor="none" style="mix-blend-mode: normal"><path d="M6000,40400h-4000v-800h4000zM6800,50400h-800v-20800h800zM10800,50400h-4000v-800h4000zM11600,55400h-800v-10800h800zM15600,55400h-4000v-800h4000zM20400,57900h-4000v-800h4000zM20400,52900h-4000v-800h4000zM16400,57900h-800v-5800h800zM15600,45400h-4000v-800h4000zM20400,47900h-4000v-800h4000zM20400,42900h-4000v-800h4000zM16400,47900h-800v-5800h800zM10800,30400h-4000v-800h4000zM11600,35400h-800v-10800l800,0zM15600,35400h-4000v-800h4000zM20400,37900h-4000v-800h4000zM20400,32900h-4000v-800l4000,0zM16400,37900h-800v-5800h800zM15600,25400h-4000v-800h4000zM20400,27900l-4000,0v-800l4000,0zM20400,22900h-4000l0,-800h4000zM16400,27900h-800l0,-5800h800z" stroke-width="1"/><path d="M64000,40600h4000v800h-4000zM63200,30600h800l0,20800h-800zM59200,30600h4000v800h-4000zM58400,25600h800l0,10800h-800zM54400,25600h4000v800h-4000zM49600,23100h4000v800h-4000zM49600,28100h4000v800h-4000zM53600,23100h800v5800h-800zM54400,35600h4000v800h-4000zM49600,33100h4000v800h-4000zM49600,38100h4000v800h-4000zM53600,33100h800v5800h-800zM59200,50600h4000v800h-4000zM58400,45600h800v10800h-800zM54400,45600h4000v800h-4000zM49600,43100h4000v800h-4000zM49600,48100h4000v800h-4000zM53600,43100h800v5800h-800zM54400,55600h4000v800h-4000zM49600,53100h4000v800h-4000zM49600,58100h4000v800h-4000zM53600,53100h800v5800h-800z" stroke-width="1"/><path d="M35000,42400v-800v0v800z" stroke-width="0"/></g></svg>