<svg width="135mm" height="85mm" viewBox="0 0 135000 85000"><g xmlns="http://www.w3.org/2000/svg" fill="#303f9f" fill-rule="nonzero" stroke="none" stroke-width="none" stroke-linecap="butt" stroke-linejoin="miter" stroke-miterlimit="10" stroke-dasharray="" stroke-dashoffset="0" font-family="none" font-weight="none" font-size="none" text-anchor="none" style="mix-blend-mode: normal"><path d="M6000,40400h-4000v-800h4000zM6800,50400h-800v-20800h800zM10800,50400h-4000v-800h4000zM11600,55400h-800v-10800h800zM15600,55400h-4000v-800h4000zM20400,57900h-4000v-800h4000zM20400,52900h-4000v-800h4000zM16400,57900h-800v-5800h800zM15600,45400h-4000v-800h4000zM20400,47900h-4000v-800h4000zM20400,42900h-4000v-800h4000zM16400,47900h-800v-5800h800zM10800,30400h-4000v-800h4000zM11600,35400h-800v-10800l800,0zM15600,35400h-4000v-800h4000zM20400,37900h-4000v-800h4000zM20400,32900h-4000v-800l4000,0zM16400,37900h-800v-5800h800zM15600,25400h-4000v-800h4000zM20400,27900l-4000,0v-800l4000,0zM20400,22900h-4000l0,-800h4000zM16400,27900h-800l0,-5800h800z" stroke-width="1"/><path d="M64000,40600h4000v800h-4000zM63200,30600h800l0,20800h-800zM59200,30600h4000v800h-4000zM58400,25600h800l0,10800h-800zM54400,25600h4000v800h-4000zM49600,23100h4000v800h-4000zM49600,28100h4000v800h-4000zM53600,23100h800v5800h-800zM54400,35600h4000v800h-4000zM49600,33100h4000v800h-4000zM49600,38100h4000v800h-4000zM53600,33100h800v5800h-800zM59200,50600h4000v800h-4000zM58400,45600h800v10800h-800zM54400,45600h4000v800h-4000zM49600,43100h4000v800h-4000zM49600,48100h4000v800h-4000zM53600,43100h800v5800h-800zM54400,55600h4000v800h-4000zM49600,53100h4000v800h-4000zM49600,58100h4000v800h-4000zM53600,53100h800v5800h-800z" stroke-width="1"/><path d="M35000,42400v-800v0v800z" stroke-width="0"/><path d="M73200,20000h800v21200h-800zM71800,20000h2200v800h-2200zM71800,20000h800v41600h-800zM70400,60800h2200v800h-2200zM70400,20000h800v41600h-800zM69000,20000h2200v800h-2200zM69000,20000h800v41600h-800zM67600,60800h2200v800h-2200zM67600,40400h800v20800h-800z" stroke-width="1"/><path d="M2000,14400c-220.9139,0 -400,-179.0861 -400,-400v0c0,-220.9139 179.0861,-400 400,-400v0c220.9139,0 400,179.0861 400,400v0c0,220.9139 -179.0861,400 -400,400zM2000,14400c-220.9139,0 -400,-179.0861 -400,-400v0c0,-220.9139 179.0861,-400 400,-400h66000c220.9139,0 400,179.0861 400,400v0c0,220.9139 -179.0861,400 -400,400zM67600,14000c0,-220.9139 179.0861,-400 400,-400v0c220.9139,0 400,179.0861 400,400v27000c0,220.9139 -179.0861,400 -400,400v0c-220.9139,0 -400,-179.0861 -400,-400zM68000,41400c-220.9139,0 -400,-179.0861 -400,-400v0c0,-220.9139 179.0861,-400 400,-400v0c220.9139,0 400,179.0861 400,400v0c0,220.9139 -179.0861,400 -400,400z" stroke-width="1"/><path d="M96200,12000h800v7200h-800zM94800,12000h2200v800h-2200zM94800,12000h800v13600h-800zM93400,24800h2200v800h-2200zM93400,12000h800v13600h-800zM92000,12000h2200v800h-2200zM92000,12000h800v13600h-800zM90600,24800h2200v800h-2200zM90600,18400h800v6800h-800z" stroke-width="1"/><path d="M96200,34000h800v7200h-800zM94800,34000h2200v800h-2200zM94800,34000h800v13600h-800zM93400,46800h2200v800h-2200zM93400,34000h800v13600h-800zM92000,34000h2200v800h-2200zM92000,34000h800v13600h-800zM90600,46800h2200v800h-2200zM90600,34000h800v13600h-800zM89200,34000h2200v800h-2200zM89200,34000h800v13600h-800zM87800,46800h2200v800h-2200zM87800,34000h800v13600h-800zM86400,34000h2200v800h-2200zM86400,34000h800v13600h-800zM85000,46800h2200v800h-2200zM85000,40400h800v6800h-800z" stroke-width="1"/><path d="M95900,57000h800v7200h-800zM94500,57000h2200v800h-2200zM94500,57000h800v13600h-800zM93100,69800h2200v800h-2200zM93100,57000h800v13600h-800zM91700,57000h2200v800h-2200zM91700,57000h800v13600h-800zM90300,69800h2200v800h-2200zM90300,57000h800v13600h-800zM88900,57000h2200v800h-2200zM88900,57000h800v13600h-800zM87500,69800h2200v800h-2200zM87500,57000h800v13600h-800zM86100,57000h2200v800h-2200zM86100,57000h800v13600h-800zM84700,69800h2200v800h-2200zM84700,57000h800v13600h-800zM83300,57000h2200v800h-2200zM83300,57000h800v13600h-800zM81900,69800h2200v800h-2200zM81900,57000h800v13600h-800zM80500,57000h2200v800h-2200zM80500,57000h800v13600h-800zM79100,69800h2200v800h-2200zM79100,63400h800v6800h-800z" stroke-width="1"/><path d="M100200,69000c-110.45695,0 -200,-89.54305 -200,-200v-9600c0,-110.45695 89.54305,-200 200,-200h9600c110.45695,0 200,89.54305 200,200v9600c0,110.45695 -89.54305,200 -200,200z" stroke-width="1"/><path d="M100200,46000c-110.45695,0 -200,-89.54305 -200,-200v-9600c0,-110.45695 89.54305,-200 200,-200h9600c110.45695,0 200,89.54305 200,200v9600c0,110.45695 -89.54305,200 -200,200z" stroke-width="1"/><path d="M100200,25000c-110.45695,0 -200,-89.54305 -200,-200v-9600c0,-110.45695 89.54305,-200 200,-200h9600c110.45695,0 200,89.54305 200,200v9600c0,110.45695 -89.54305,200 -200,200z" stroke-width="1"/></g></svg>