<svg width="135mm" height="85mm" viewBox="0 0 135000 85000"><g xmlns="http://www.w3.org/2000/svg" fill="#303f9f" fill-rule="nonzero" stroke="none" stroke-width="0" stroke-linecap="butt" stroke-linejoin="miter" stroke-miterlimit="10" stroke-dasharray="" stroke-dashoffset="0" font-family="none" font-weight="none" font-size="none" text-anchor="none" style="mix-blend-mode: normal"><path d="M20000,39250v-2500h30000v2500z"/><path d="M20000,49250v-2500h30000v2500z"/><path d="M20000,54250v-2500h30000v2500z"/><path d="M20000,59250v-2500h30000v2500z"/><path d="M20000,29250v-2500h30000v2500z"/><path d="M20000,24250v-2500h30000v2500z"/><path d="M20000,44250v-2500h30000v2500z"/><path d="M20000,34250v-2500h30000v2500z"/><path d="M74000,42250v-2500v0v2500z"/><path d="M74000,42250v-2500v0v2500z"/><path d="M74000,41200v-800h11100v800z"/><path d="M80000,63900v-800v0v800z"/><path d="M79100,41000h800v22500h-800z"/><path d="M91000,18400v-800v0v800z"/><path d="M91000,18400v-800v0v800z"/><path d="M82400,41000h-800v-23000h800z"/><path d="M82000,18400v-800v0v800z"/><path d="M82000,18900v-800h9500v800z"/><path d="M96500,19900v-800v0v800z"/><path d="M96000,19900v-800h4500v800z"/><path d="M96500,41900v-800v0v800z"/><path d="M96000,41900v-800h4500v800z"/><path d="M114000,-55600v-800v0v800z"/><path d="M96000,64400v-800h4000v800z"/><path d="M109000,11400v-800v0v800z"/><path d="M109000,15400v-800v0v800z"/><path d="M108600,11000h800v4000h-800z"/><path d="M101400,29000h-800v-4000h800z"/><path d="M108600,32000h800v4000h-800z"/><path d="M101400,50000h-800v-4000h800z"/><path d="M108600,55000h800v4000h-800z"/><path d="M101400,73000h-800v-4000h800z"/></g></svg>