<svg width="135mm" height="85mm" viewBox="0 0 135000 85000"><g xmlns="http://www.w3.org/2000/svg" fill="#303f9f" fill-rule="nonzero" stroke="none" stroke-width="1" stroke-linecap="butt" stroke-linejoin="miter" stroke-miterlimit="10" stroke-dasharray="" stroke-dashoffset="0" font-family="none" font-weight="none" font-size="none" text-anchor="none" style="mix-blend-mode: normal"><path d="M1485,40000c0,-284.42665 230.57335,-515 515,-515c284.42665,0 515,230.57335 515,515c0,284.42665 -230.57335,515 -515,515c-284.42665,0 -515,-230.57335 -515,-515z"/><path d="M1485,14000c0,-284.42665 230.57335,-515 515,-515c284.42665,0 515,230.57335 515,515c0,284.42665 -230.57335,515 -515,515c-284.42665,0 -515,-230.57335 -515,-515z"/><path d="M108485,55000c0,-284.42665 230.57335,-515 515,-515c284.42665,0 515,230.57335 515,515c0,284.42665 -230.57335,515 -515,515c-284.42665,0 -515,-230.57335 -515,-515z"/><path d="M108485,32000c0,-284.42665 230.57335,-515 515,-515c284.42665,0 515,230.57335 515,515c0,284.42665 -230.57335,515 -515,515c-284.42665,0 -515,-230.57335 -515,-515z"/><path d="M108485,11000c0,-284.42665 230.57335,-515 515,-515c284.42665,0 515,230.57335 515,515c0,284.42665 -230.57335,515 -515,515c-284.42665,0 -515,-230.57335 -515,-515z"/><path d="M100485,29000c0,-284.42665 230.57335,-515 515,-515c284.42665,0 515,230.57335 515,515c0,284.42665 -230.57335,515 -515,515c-284.42665,0 -515,-230.57335 -515,-515z"/><path d="M100485,50000c0,-284.42665 230.57335,-515 515,-515c284.42665,0 515,230.57335 515,515c0,284.42665 -230.57335,515 -515,515c-284.42665,0 -515,-230.57335 -515,-515z"/><path d="M100485,73000c0,-284.42665 230.57335,-515 515,-515c284.42665,0 515,230.57335 515,515c0,284.42665 -230.57335,515 -515,515c-284.42665,0 -515,-230.57335 -515,-515z"/></g></svg>